<svg width="233" height="114" viewBox="0 0 233 114" fill="none" xmlns="http://www.w3.org/2000/svg">
<path d="M5.33768 76.6491C1.77923 76.6491 0 74.692 0 70.7777V29.1438C0 25.3006 1.77923 23.3791 5.33768 23.3791C8.96731 23.3791 10.7821 25.3006 10.7821 29.1438V70.7777C10.7821 74.692 8.96731 76.6491 5.33768 76.6491Z" fill="#FAFAFA"/>
<path d="M26.4924 76.7559C22.934 76.7559 21.1547 74.9411 21.1547 71.3115V28.61C21.1547 24.9804 22.8984 23.1655 26.3857 23.1655C29.873 23.1655 31.6166 24.9804 31.6166 28.61V32.5599C33.3958 29.4284 35.8156 27.0443 38.8759 25.4074C42.0073 23.7705 45.4946 22.952 49.3377 22.952C61.65 22.952 67.8061 29.9266 67.8061 43.8758V71.3115C67.8061 74.9411 66.0269 76.7559 62.4684 76.7559C58.8388 76.7559 57.024 74.9411 57.024 71.3115V44.5163C57.024 40.0326 56.1344 36.7588 54.3551 34.6949C52.6471 32.631 49.9426 31.5991 46.2419 31.5991C41.9005 31.5991 38.4133 32.9869 35.78 35.7625C33.2179 38.4669 31.9369 42.0609 31.9369 46.5446V71.3115C31.9369 74.9411 30.122 76.7559 26.4924 76.7559Z" fill="#FAFAFA"/>
<path d="M97.7155 76.9694C93.1606 76.9694 89.1396 75.9019 85.6523 73.7668C82.2362 71.5605 79.5673 68.4291 77.6458 64.3725C75.7242 60.3158 74.7634 55.5119 74.7634 49.9607C74.7634 44.4095 75.7242 39.6412 77.6458 35.6557C79.5673 31.5991 82.2362 28.4676 85.6523 26.2614C89.0684 24.0552 93.0895 22.952 97.7155 22.952C101.63 22.952 105.117 23.8061 108.177 25.5141C111.238 27.2222 113.515 29.5352 115.01 32.4531V5.44444C115.01 1.81481 116.789 0 120.347 0C123.977 0 125.792 1.81481 125.792 5.44444V71.3115C125.792 74.9411 124.012 76.7559 120.454 76.7559C116.896 76.7559 115.116 74.9411 115.116 71.3115V67.2548C113.551 70.2439 111.238 72.6281 108.177 74.4073C105.117 76.1154 101.63 76.9694 97.7155 76.9694ZM100.491 68.6426C104.904 68.6426 108.462 67.0413 111.166 63.8387C113.871 60.6361 115.223 56.0101 115.223 49.9607C115.223 43.9113 113.871 39.3209 111.166 36.1895C108.462 32.9869 104.904 31.3856 100.491 31.3856C96.0074 31.3856 92.4134 32.9869 89.709 36.1895C87.0045 39.3209 85.6523 43.9113 85.6523 49.9607C85.6523 56.0101 87.0045 60.6361 89.709 63.8387C92.4134 67.0413 96.0074 68.6426 100.491 68.6426Z" fill="#FAFAFA"/>
<path d="M160.574 76.9694C152.034 76.9694 145.308 74.5852 140.398 69.8169C135.487 64.9774 133.032 58.3943 133.032 50.0675C133.032 44.7298 134.099 40.0326 136.234 35.976C138.441 31.8482 141.465 28.6456 145.308 26.3682C149.152 24.0907 153.564 22.952 158.546 22.952C165.734 22.952 171.392 25.265 175.52 29.891C179.648 34.4458 181.711 40.7443 181.711 48.7864C181.711 51.2062 180.288 52.4161 177.441 52.4161H143.494C144.276 63.2338 150.006 68.6426 160.681 68.6426C162.816 68.6426 165.058 68.3935 167.406 67.8953C169.755 67.326 172.032 66.3296 174.239 64.9062C175.733 64.0522 177.014 63.7675 178.082 64.0522C179.221 64.2657 180.039 64.8706 180.537 65.867C181.035 66.7922 181.106 67.8597 180.751 69.0696C180.466 70.2083 179.648 71.2047 178.295 72.0587C175.876 73.6956 173.029 74.9411 169.755 75.7951C166.552 76.578 163.492 76.9694 160.574 76.9694ZM158.973 30.5315C154.489 30.5315 150.931 31.9193 148.298 34.6949C145.664 37.4705 144.063 41.1713 143.494 45.7973H172.637C172.424 40.9578 171.143 37.2214 168.794 34.5882C166.446 31.8838 163.172 30.5315 158.973 30.5315Z" fill="#FAFAFA"/>
<path d="M190.06 76.6491C188.138 76.6491 186.751 75.8663 185.896 74.3005C185.114 72.7348 185.505 70.9556 187.071 68.9629L203.084 49.1067L188.245 30.7451C186.608 28.8235 186.217 27.0798 187.071 25.5141C187.925 23.9484 189.277 23.1655 191.127 23.1655C192.48 23.1655 193.583 23.4146 194.437 23.9128C195.362 24.3398 196.216 25.0871 196.999 26.1546L209.276 41.7407L221.659 26.1546C222.442 25.0871 223.26 24.3398 224.114 23.9128C224.968 23.4146 226.071 23.1655 227.424 23.1655C229.274 23.1655 230.626 23.9484 231.48 25.5141C232.334 27.0798 231.943 28.8591 230.306 30.8518L215.467 49.2134L231.48 68.9629C233.046 70.8844 233.402 72.6637 232.548 74.3005C231.765 75.8663 230.413 76.6491 228.491 76.6491C226.143 76.6491 224.185 75.6528 222.62 73.66L209.169 56.793L195.825 73.66C195.042 74.6564 194.223 75.4037 193.369 75.9019C192.515 76.4 191.412 76.6491 190.06 76.6491Z" fill="#FAFAFA"/>
<path d="M0.799243 113.626C0.266414 113.626 0 113.347 0 112.789V87.403C0 86.8448 0.279101 86.5657 0.837302 86.5657H9.70509C12.5215 86.5657 14.6782 87.2381 16.1751 88.5829C17.6721 89.9276 18.4206 91.8433 18.4206 94.3298C18.4206 96.8163 17.6721 98.732 16.1751 100.077C14.6782 101.421 12.5215 102.094 9.70509 102.094H1.59849V112.789C1.59849 113.347 1.33207 113.626 0.799243 113.626ZM1.59849 100.61H9.66703C14.3864 100.61 16.746 98.5163 16.746 94.3298C16.746 90.1433 14.3864 88.05 9.66703 88.05H1.59849V100.61Z" fill="white"/>
<path d="M27.0532 113.702C25.8607 113.702 24.7824 113.461 23.8182 112.979C22.854 112.497 22.0928 111.85 21.5346 111.038C20.9764 110.2 20.6973 109.274 20.6973 108.259C20.6973 106.889 21.0272 105.824 21.6869 105.062C22.3719 104.276 23.5264 103.73 25.1503 103.426C26.7995 103.096 29.0577 102.931 31.9248 102.931H33.0666V101.409C33.0666 99.582 32.7114 98.2499 32.0009 97.4126C31.2905 96.5753 30.1487 96.1566 28.5756 96.1566C26.6473 96.1566 24.7062 96.7275 22.7525 97.8693C22.3973 98.0723 22.1055 98.0977 21.8772 97.9454C21.6488 97.7678 21.5346 97.5268 21.5346 97.2223C21.5346 96.9178 21.6742 96.6895 21.9533 96.5372C22.9936 95.9029 24.0719 95.4335 25.1883 95.129C26.3047 94.8246 27.4084 94.6723 28.4995 94.6723C30.6054 94.6723 32.1532 95.2178 33.1427 96.3089C34.1576 97.3999 34.6651 99.0999 34.6651 101.409V112.789C34.6651 113.347 34.4113 113.626 33.9039 113.626C33.371 113.626 33.1046 113.347 33.1046 112.789V109.972C32.5718 111.139 31.7726 112.053 30.7069 112.712C29.6666 113.372 28.4487 113.702 27.0532 113.702ZM27.1674 112.256C28.3346 112.256 29.3495 111.977 30.2121 111.418C31.1002 110.835 31.7979 110.061 32.3054 109.097C32.8128 108.107 33.0666 106.991 33.0666 105.748V104.339H32.0009C29.489 104.339 27.5353 104.454 26.1398 104.682C24.7697 104.885 23.8055 105.265 23.2473 105.824C22.7145 106.357 22.4481 107.118 22.4481 108.107C22.4481 109.325 22.8667 110.327 23.704 111.114C24.5667 111.875 25.7212 112.256 27.1674 112.256Z" fill="white"/>
<path d="M45.9987 113.626C45.4151 113.626 45.0091 113.309 44.7808 112.674L38.9577 96.0805C38.8055 95.6238 38.8182 95.294 38.9958 95.091C39.1734 94.8626 39.3891 94.7485 39.6428 94.7485C40.0487 94.7485 40.3279 94.9768 40.4801 95.4335L45.9606 111.494L51.6314 95.6999C51.8598 95.0656 52.2784 94.7485 52.8874 94.7485C53.4963 94.7485 53.915 95.0656 54.1433 95.6999L59.6619 111.494L65.2947 95.4335C65.4469 94.9768 65.7387 94.7485 66.17 94.7485C66.5252 94.7485 66.7409 94.888 66.817 95.1671C66.9185 95.4208 66.9058 95.7253 66.779 96.0805L60.8798 112.674C60.6514 113.309 60.2582 113.626 59.7 113.626C59.1164 113.626 58.7104 113.309 58.4821 112.674L52.8874 96.8798L47.2166 112.674C46.9882 113.309 46.5822 113.626 45.9987 113.626Z" fill="white"/>
<path d="M78.775 113.702C76.0348 113.702 73.8654 112.865 72.2669 111.19C70.6938 109.49 69.9072 107.181 69.9072 104.263C69.9072 102.335 70.2625 100.66 70.9729 99.2394C71.7087 97.7932 72.7109 96.6768 73.9796 95.8902C75.2736 95.0783 76.7579 94.6723 78.4325 94.6723C80.8175 94.6723 82.6698 95.4589 83.9891 97.032C85.3085 98.5797 85.9682 100.736 85.9682 103.502C85.9682 104.162 85.6891 104.492 85.1309 104.492H71.5438C71.5945 106.953 72.2415 108.856 73.4848 110.2C74.7281 111.545 76.4661 112.218 78.6989 112.218C79.7138 112.218 80.6653 112.091 81.5534 111.837C82.4414 111.558 83.3168 111.076 84.1794 110.391C84.5093 110.137 84.8011 110.061 85.0548 110.162C85.3339 110.264 85.4988 110.454 85.5496 110.733C85.6257 111.012 85.4988 111.292 85.169 111.571C84.3824 112.23 83.4183 112.75 82.2765 113.131C81.1347 113.512 79.9676 113.702 78.775 113.702ZM78.3944 96.1186C76.3392 96.1186 74.7281 96.7783 73.5609 98.0977C72.4192 99.417 71.7595 101.079 71.5819 103.083H84.4839C84.4078 100.927 83.8623 99.2267 82.8474 97.9835C81.8325 96.7402 80.3481 96.1186 78.3944 96.1186Z" fill="white"/>
<path d="M95.4997 113.702C93.9012 113.702 92.6579 113.194 91.7699 112.18C90.9072 111.139 90.4759 109.693 90.4759 107.841V87.1747C90.4759 86.6165 90.7423 86.3374 91.2751 86.3374C91.8079 86.3374 92.0743 86.6165 92.0743 87.1747V107.574C92.0743 110.67 93.2669 112.218 95.6519 112.218C95.9056 112.218 96.1213 112.205 96.2989 112.18C96.4765 112.154 96.6541 112.141 96.8317 112.141C97.2631 112.141 97.4787 112.332 97.4787 112.712C97.4787 112.991 97.4026 113.194 97.2504 113.321C97.0981 113.448 96.8444 113.55 96.4892 113.626C96.3116 113.651 96.134 113.664 95.9564 113.664C95.8041 113.689 95.6519 113.702 95.4997 113.702ZM88.1542 102.703C87.8498 102.88 87.5834 102.893 87.355 102.741C87.1266 102.589 87.0125 102.373 87.0125 102.094C86.9871 101.815 87.1393 101.586 87.4692 101.409L95.1571 96.9178C95.4616 96.7402 95.728 96.7275 95.9564 96.8798C96.1847 97.032 96.2989 97.2477 96.2989 97.5268C96.3243 97.7805 96.172 98.0089 95.8422 98.2118L88.1542 102.703Z" fill="white"/>
<path d="M108.572 113.397C108.166 113.397 107.887 113.233 107.735 112.903C107.608 112.573 107.71 112.18 108.04 111.723L124.443 88.05H108.458C107.875 88.05 107.583 87.7963 107.583 87.2889C107.583 86.8068 107.875 86.5657 108.458 86.5657H125.661C126.092 86.5657 126.371 86.7307 126.498 87.0605C126.625 87.365 126.524 87.7583 126.194 88.2403L109.79 111.913H126.308C126.892 111.913 127.183 112.154 127.183 112.636C127.183 113.144 126.892 113.397 126.308 113.397H108.572Z" fill="white"/>
<path d="M131.301 89.953C130.413 89.953 129.969 89.509 129.969 88.6209C129.969 87.7583 130.413 87.3269 131.301 87.3269C132.189 87.3269 132.633 87.7583 132.633 88.6209C132.633 89.509 132.189 89.953 131.301 89.953ZM131.301 113.512C130.768 113.512 130.502 113.233 130.502 112.674V95.6999C130.502 95.1417 130.768 94.8626 131.301 94.8626C131.834 94.8626 132.1 95.1417 132.1 95.6999V112.674C132.1 113.233 131.834 113.512 131.301 113.512Z" fill="white"/>
<path d="M145.646 113.702C142.906 113.702 140.737 112.865 139.138 111.19C137.565 109.49 136.778 107.181 136.778 104.263C136.778 102.335 137.134 100.66 137.844 99.2394C138.58 97.7932 139.582 96.6768 140.851 95.8902C142.145 95.0783 143.629 94.6723 145.304 94.6723C147.689 94.6723 149.541 95.4589 150.86 97.032C152.18 98.5797 152.839 100.736 152.839 103.502C152.839 104.162 152.56 104.492 152.002 104.492H138.415C138.466 106.953 139.113 108.856 140.356 110.2C141.599 111.545 143.337 112.218 145.57 112.218C146.585 112.218 147.536 112.091 148.424 111.837C149.313 111.558 150.188 111.076 151.051 110.391C151.38 110.137 151.672 110.061 151.926 110.162C152.205 110.264 152.37 110.454 152.421 110.733C152.497 111.012 152.37 111.292 152.04 111.571C151.254 112.23 150.289 112.75 149.148 113.131C148.006 113.512 146.839 113.702 145.646 113.702ZM145.266 96.1186C143.21 96.1186 141.599 96.7783 140.432 98.0977C139.29 99.417 138.631 101.079 138.453 103.083H151.355C151.279 100.927 150.733 99.2267 149.719 97.9835C148.704 96.7402 147.219 96.1186 145.266 96.1186Z" fill="white"/>
<path d="M162.371 113.702C160.772 113.702 159.529 113.194 158.641 112.18C157.778 111.139 157.347 109.693 157.347 107.841V87.1747C157.347 86.6165 157.613 86.3374 158.146 86.3374C158.679 86.3374 158.945 86.6165 158.945 87.1747V107.574C158.945 110.67 160.138 112.218 162.523 112.218C162.777 112.218 162.992 112.205 163.17 112.18C163.348 112.154 163.525 112.141 163.703 112.141C164.134 112.141 164.35 112.332 164.35 112.712C164.35 112.991 164.274 113.194 164.122 113.321C163.969 113.448 163.716 113.55 163.36 113.626C163.183 113.651 163.005 113.664 162.827 113.664C162.675 113.689 162.523 113.702 162.371 113.702Z" fill="white"/>
<path d="M168.056 89.953C167.168 89.953 166.724 89.509 166.724 88.6209C166.724 87.7583 167.168 87.3269 168.056 87.3269C168.945 87.3269 169.389 87.7583 169.389 88.6209C169.389 89.509 168.945 89.953 168.056 89.953ZM168.056 113.512C167.524 113.512 167.257 113.233 167.257 112.674V95.6999C167.257 95.1417 167.524 94.8626 168.056 94.8626C168.589 94.8626 168.856 95.1417 168.856 95.6999V112.674C168.856 113.233 168.589 113.512 168.056 113.512Z" fill="white"/>
<path d="M175.551 113.626C175.018 113.626 174.752 113.347 174.752 112.789V95.5858C174.752 95.0276 175.018 94.7485 175.551 94.7485C176.058 94.7485 176.312 95.0276 176.312 95.5858V98.4021C176.921 97.1589 177.796 96.2328 178.938 95.6238C180.105 94.9895 181.399 94.6723 182.82 94.6723C187.21 94.6723 189.404 97.0066 189.404 101.675V112.789C189.404 113.347 189.138 113.626 188.605 113.626C188.072 113.626 187.806 113.347 187.806 112.789V101.827C187.806 99.8738 187.413 98.4402 186.626 97.5268C185.84 96.6134 184.571 96.1566 182.82 96.1566C180.866 96.1566 179.293 96.7656 178.101 97.9835C176.934 99.176 176.35 100.787 176.35 102.817V112.789C176.35 113.347 176.084 113.626 175.551 113.626ZM182.82 92.3888C182.693 92.5918 182.516 92.6933 182.287 92.6933C182.059 92.6933 181.881 92.6045 181.755 92.4268C181.628 92.2492 181.628 92.0336 181.755 91.7798L185.218 85.1195C185.446 84.7135 185.725 84.5232 186.055 84.5486C186.385 84.5486 186.639 84.6881 186.816 84.9672C187.019 85.221 187.007 85.5254 186.778 85.8807L182.82 92.3888Z" fill="white"/>
<path d="M200.964 113.702C199.797 113.702 198.668 113.537 197.577 113.207C196.486 112.877 195.42 112.319 194.38 111.533C194.152 111.355 194.05 111.127 194.076 110.847C194.126 110.568 194.266 110.353 194.494 110.2C194.723 110.048 194.989 110.086 195.293 110.315C196.258 111.025 197.222 111.52 198.186 111.799C199.15 112.078 200.114 112.218 201.078 112.218C202.728 112.218 203.984 111.9 204.846 111.266C205.734 110.632 206.178 109.769 206.178 108.678C206.178 107.815 205.887 107.143 205.303 106.661C204.745 106.154 203.831 105.748 202.563 105.443L199.404 104.682C197.805 104.301 196.626 103.718 195.864 102.931C195.129 102.145 194.761 101.13 194.761 99.8864C194.761 98.3133 195.357 97.0574 196.549 96.1186C197.767 95.1544 199.378 94.6723 201.383 94.6723C202.499 94.6723 203.565 94.8499 204.58 95.2052C205.62 95.5604 206.496 96.0932 207.206 96.8036C207.46 97.0574 207.561 97.3238 207.51 97.6029C207.46 97.882 207.307 98.0723 207.054 98.1738C206.825 98.2753 206.559 98.1992 206.254 97.9454C205.544 97.3365 204.77 96.8925 203.933 96.6134C203.096 96.3089 202.233 96.1566 201.345 96.1566C199.797 96.1566 198.592 96.4992 197.729 97.1842C196.867 97.8439 196.435 98.732 196.435 99.8484C196.435 100.711 196.702 101.409 197.234 101.942C197.767 102.474 198.617 102.88 199.784 103.16L202.943 103.921C204.593 104.327 205.823 104.898 206.635 105.633C207.447 106.369 207.853 107.359 207.853 108.602C207.853 110.15 207.231 111.393 205.988 112.332C204.745 113.245 203.07 113.702 200.964 113.702Z" fill="white"/>
<path d="M213.509 113.626C212.976 113.626 212.71 113.347 212.71 112.789V87.1747C212.71 86.6165 212.976 86.3374 213.509 86.3374C214.042 86.3374 214.308 86.6165 214.308 87.1747V103.502H214.384L223.557 95.3193C223.76 95.1417 223.95 95.0022 224.127 94.9007C224.305 94.7992 224.521 94.7485 224.774 94.7485C225.079 94.7485 225.282 94.8753 225.383 95.129C225.51 95.3828 225.421 95.6492 225.117 95.9283L216.135 103.921L225.954 112.294C226.309 112.598 226.436 112.903 226.335 113.207C226.233 113.486 226.043 113.626 225.764 113.626C225.536 113.626 225.333 113.575 225.155 113.474C225.003 113.372 224.787 113.207 224.508 112.979L214.384 104.377H214.308V112.789C214.308 113.347 214.042 113.626 213.509 113.626Z" fill="white"/>
<path d="M230.741 89.953C229.853 89.953 229.409 89.509 229.409 88.6209C229.409 87.7583 229.853 87.3269 230.741 87.3269C231.629 87.3269 232.073 87.7583 232.073 88.6209C232.073 89.509 231.629 89.953 230.741 89.953ZM230.741 113.512C230.208 113.512 229.942 113.233 229.942 112.674V95.6999C229.942 95.1417 230.208 94.8626 230.741 94.8626C231.274 94.8626 231.54 95.1417 231.54 95.6999V112.674C231.54 113.233 231.274 113.512 230.741 113.512Z" fill="white"/>
<path d="M4.48365 8.7538C3.20261 8.7538 2.13507 8.32679 1.28104 7.47276C0.427015 6.61873 0 5.58678 0 4.3769C0 3.09586 0.427015 2.0639 1.28104 1.28104C2.13507 0.427013 3.20261 0 4.48365 0H27.9695C29.1793 0 30.2113 0.427013 31.0653 1.28104C31.9193 2.0639 32.3464 3.09586 32.3464 4.3769C32.3464 5.58678 31.9193 6.61873 31.0653 7.47276C30.2113 8.32679 29.1793 8.7538 27.9695 8.7538H4.48365Z" fill="#33CEFF"/>
</svg>
